<?xml version="1.0" encoding="utf-8" standalone="no"?>
<!DOCTYPE svg PUBLIC "-//W3C//DTD SVG 1.1//EN"
  "http://www.w3.org/Graphics/SVG/1.1/DTD/svg11.dtd">
<svg xmlns:xlink="http://www.w3.org/1999/xlink" width="168pt" height="168pt" viewBox="0 0 168 168" xmlns="http://www.w3.org/2000/svg" version="1.1">
 <metadata>
  <rdf:RDF xmlns:dc="http://purl.org/dc/elements/1.1/" xmlns:cc="http://creativecommons.org/ns#" xmlns:rdf="http://www.w3.org/1999/02/22-rdf-syntax-ns#">
   <cc:Work>
    <dc:type rdf:resource="http://purl.org/dc/dcmitype/StillImage"/>
    
    <dc:format>image/svg+xml</dc:format>
    <dc:creator>
     <cc:Agent>
      <dc:title>Matplotlib v3.11.2, https://matplotlib.org/</dc:title>
     </cc:Agent>
    </dc:creator>
   </cc:Work>
  </rdf:RDF>
 </metadata>
 <defs>
  <style type="text/css">*{stroke-linejoin: round; stroke-linecap: butt}</style>
 </defs>
 <g id="figure_1">
  <g id="patch_1">
   <path d="M 0 168 
L 168 168 
L 168 0 
L 0 0 
z
" style="fill: #ffffff"/>
  </g>
  <g id="axes_1">
   <g id="patch_2">
    <path d="M 21.000187 56.100083 
L 57.00008 56.100083 
L 57.00008 20.100189 
L 21.000187 20.100189 
z
" clip-path="url(#p69413b854d)" style="fill: #9ca3af; stroke: #334155; stroke-width: 1.3; stroke-linejoin: miter"/>
   </g>
   <g id="patch_3">
    <path d="M 57.00008 56.100083 
L 92.999973 56.100083 
L 92.999973 20.100189 
L 57.00008 20.100189 
z
" clip-path="url(#p69413b854d)" style="fill: #ffffff; stroke: #334155; stroke-width: 1.3; stroke-linejoin: miter"/>
   </g>
   <g id="patch_4">
    <path d="M 92.999973 56.100083 
L 128.999867 56.100083 
L 128.999867 20.100189 
L 92.999973 20.100189 
z
" clip-path="url(#p69413b854d)" style="fill: #ffffff; stroke: #334155; stroke-width: 1.3; stroke-linejoin: miter"/>
   </g>
   <g id="patch_5">
    <path d="M 128.999867 56.100083 
L 164.99976 56.100083 
L 164.99976 20.100189 
L 128.999867 20.100189 
z
" clip-path="url(#p69413b854d)" style="fill: #9ca3af; stroke: #334155; stroke-width: 1.3; stroke-linejoin: miter"/>
   </g>
   <g id="patch_6">
    <path d="M 21.000187 92.099976 
L 57.00008 92.099976 
L 57.00008 56.100083 
L 21.000187 56.100083 
z
" clip-path="url(#p69413b854d)" style="fill: #ffffff; stroke: #334155; stroke-width: 1.3; stroke-linejoin: miter"/>
   </g>
   <g id="patch_7">
    <path d="M 57.00008 92.099976 
L 92.999973 92.099976 
L 92.999973 56.100083 
L 57.00008 56.100083 
z
" clip-path="url(#p69413b854d)" style="fill: #ffffff; stroke: #334155; stroke-width: 1.3; stroke-linejoin: miter"/>
   </g>
   <g id="patch_8">
    <path d="M 92.999973 92.099976 
L 128.999867 92.099976 
L 128.999867 56.100083 
L 92.999973 56.100083 
z
" clip-path="url(#p69413b854d)" style="fill: #ffffff; stroke: #334155; stroke-width: 1.3; stroke-linejoin: miter"/>
   </g>
   <g id="patch_9">
    <path d="M 128.999867 92.099976 
L 164.99976 92.099976 
L 164.99976 56.100083 
L 128.999867 56.100083 
z
" clip-path="url(#p69413b854d)" style="fill: #ffffff; stroke: #334155; stroke-width: 1.3; stroke-linejoin: miter"/>
   </g>
   <g id="patch_10">
    <path d="M 21.000187 128.099869 
L 57.00008 128.099869 
L 57.00008 92.099976 
L 21.000187 92.099976 
z
" clip-path="url(#p69413b854d)" style="fill: #ffffff; stroke: #334155; stroke-width: 1.3; stroke-linejoin: miter"/>
   </g>
   <g id="patch_11">
    <path d="M 57.00008 128.099869 
L 92.999973 128.099869 
L 92.999973 92.099976 
L 57.00008 92.099976 
z
" clip-path="url(#p69413b854d)" style="fill: #ffffff; stroke: #334155; stroke-width: 1.3; stroke-linejoin: miter"/>
   </g>
   <g id="patch_12">
    <path d="M 92.999973 128.099869 
L 128.999867 128.099869 
L 128.999867 92.099976 
L 92.999973 92.099976 
z
" clip-path="url(#p69413b854d)" style="fill: #ffffff; stroke: #334155; stroke-width: 1.3; stroke-linejoin: miter"/>
   </g>
   <g id="patch_13">
    <path d="M 128.999867 128.099869 
L 164.99976 128.099869 
L 164.99976 92.099976 
L 128.999867 92.099976 
z
" clip-path="url(#p69413b854d)" style="fill: #ffffff; stroke: #334155; stroke-width: 1.3; stroke-linejoin: miter"/>
   </g>
   <g id="patch_14">
    <path d="M 21.000187 164.099763 
L 57.00008 164.099763 
L 57.00008 128.099869 
L 21.000187 128.099869 
z
" clip-path="url(#p69413b854d)" style="fill: #9ca3af; stroke: #334155; stroke-width: 1.3; stroke-linejoin: miter"/>
   </g>
   <g id="patch_15">
    <path d="M 57.00008 164.099763 
L 92.999973 164.099763 
L 92.999973 128.099869 
L 57.00008 128.099869 
z
" clip-path="url(#p69413b854d)" style="fill: #ffffff; stroke: #334155; stroke-width: 1.3; stroke-linejoin: miter"/>
   </g>
   <g id="patch_16">
    <path d="M 92.999973 164.099763 
L 128.999867 164.099763 
L 128.999867 128.099869 
L 92.999973 128.099869 
z
" clip-path="url(#p69413b854d)" style="fill: #ffffff; stroke: #334155; stroke-width: 1.3; stroke-linejoin: miter"/>
   </g>
   <g id="patch_17">
    <path d="M 128.999867 164.099763 
L 164.99976 164.099763 
L 164.99976 128.099869 
L 128.999867 128.099869 
z
" clip-path="url(#p69413b854d)" style="fill: #ffffff; stroke: #334155; stroke-width: 1.3; stroke-linejoin: miter"/>
   </g>
   <g id="text_1">
    <!-- 1 -->
    <g transform="translate(36.509466 10.963032) scale(0.1 -0.1)">
     <defs>
      <path id="CMR17-33" d="M 1702 4083 
C 1702 4217 1696 4224 1606 4224 
C 1356 3927 979 3833 620 3820 
C 601 3820 569 3820 563 3808 
C 556 3795 556 3782 556 3648 
C 755 3648 1088 3686 1344 3839 
L 1344 467 
C 1344 243 1331 166 780 166 
L 588 166 
L 588 0 
C 896 6 1216 12 1523 12 
C 1830 12 2150 6 2457 0 
L 2457 166 
L 2265 166 
C 1715 166 1702 236 1702 467 
L 1702 4083 
z
" transform="scale(0.015625)"/>
     </defs>
     <use xlink:href="#CMR17-33" transform="scale(0.996264)"/>
    </g>
   </g>
   <g id="text_2">
    <!-- 2 -->
    <g transform="translate(72.509359 10.963032) scale(0.1 -0.1)">
     <defs>
      <path id="CMR17-34" d="M 2668 990 
L 2553 990 
C 2489 537 2438 460 2412 422 
C 2380 371 1920 371 1830 371 
L 601 371 
C 832 620 1280 1073 1824 1596 
C 2214 1966 2668 2400 2668 3033 
C 2668 3788 2067 4224 1395 4224 
C 691 4224 262 3603 262 3027 
C 262 2777 448 2745 524 2745 
C 588 2745 780 2783 780 3007 
C 780 3206 614 3264 524 3264 
C 486 3264 448 3257 422 3244 
C 544 3788 915 4057 1305 4057 
C 1862 4057 2227 3616 2227 3033 
C 2227 2477 1900 1998 1536 1583 
L 262 147 
L 262 0 
L 2515 0 
L 2668 990 
z
" transform="scale(0.015625)"/>
     </defs>
     <use xlink:href="#CMR17-34" transform="scale(0.996264)"/>
    </g>
   </g>
   <g id="text_3">
    <!-- 3 -->
    <g transform="translate(108.509252 10.963032) scale(0.1 -0.1)">
     <defs>
      <path id="CMR17-35" d="M 1414 2176 
C 1984 2176 2233 1673 2233 1094 
C 2233 322 1824 25 1452 25 
C 1113 25 563 193 390 691 
C 422 678 454 678 486 678 
C 640 678 755 780 755 947 
C 755 1132 614 1216 486 1216 
C 377 1216 211 1164 211 927 
C 211 335 787 -128 1465 -128 
C 2176 -128 2720 432 2720 1087 
C 2720 1718 2208 2176 1600 2246 
C 2086 2347 2553 2776 2553 3353 
C 2553 3856 2048 4224 1472 4224 
C 889 4224 377 3862 377 3347 
C 377 3123 544 3084 627 3084 
C 761 3084 876 3167 876 3334 
C 876 3500 761 3584 627 3584 
C 601 3584 569 3584 544 3571 
C 729 3999 1235 4076 1459 4076 
C 1683 4076 2105 3966 2105 3347 
C 2105 3167 2080 2851 1862 2574 
C 1670 2329 1452 2316 1241 2297 
C 1209 2297 1062 2284 1036 2284 
C 992 2278 966 2272 966 2227 
C 966 2182 972 2176 1100 2176 
L 1414 2176 
z
" transform="scale(0.015625)"/>
     </defs>
     <use xlink:href="#CMR17-35" transform="scale(0.996264)"/>
    </g>
   </g>
   <g id="text_4">
    <!-- 4 -->
    <g transform="translate(144.509146 10.963032) scale(0.1 -0.1)">
     <defs>
      <path id="CMR17-36" d="M 2150 4147 
C 2150 4281 2144 4288 2028 4288 
L 128 1254 
L 128 1088 
L 1779 1088 
L 1779 460 
C 1779 230 1766 166 1318 166 
L 1196 166 
L 1196 0 
C 1401 12 1747 12 1964 12 
C 2182 12 2528 12 2732 0 
L 2732 166 
L 2611 166 
C 2163 166 2150 230 2150 460 
L 2150 1088 
L 2803 1088 
L 2803 1254 
L 2150 1254 
L 2150 4147 
z
M 1798 3723 
L 1798 1254 
L 256 1254 
L 1798 3723 
z
" transform="scale(0.015625)"/>
     </defs>
     <use xlink:href="#CMR17-36" transform="scale(0.996264)"/>
    </g>
   </g>
   <g id="text_5">
    <!-- 1 -->
    <g transform="translate(8.818873 40.590796) scale(0.1 -0.1)">
     <use xlink:href="#CMR17-33" transform="scale(0.996264)"/>
    </g>
   </g>
   <g id="text_6">
    <!-- 2 -->
    <g transform="translate(8.818873 76.590689) scale(0.1 -0.1)">
     <use xlink:href="#CMR17-34" transform="scale(0.996264)"/>
    </g>
   </g>
   <g id="text_7">
    <!-- 3 -->
    <g transform="translate(8.818873 112.590583) scale(0.1 -0.1)">
     <use xlink:href="#CMR17-35" transform="scale(0.996264)"/>
    </g>
   </g>
   <g id="text_8">
    <!-- 4 -->
    <g transform="translate(8.818873 148.590476) scale(0.1 -0.1)">
     <use xlink:href="#CMR17-36" transform="scale(0.996264)"/>
    </g>
   </g>
  </g>
 </g>
 <defs>
  <clipPath id="p69413b854d">
   <rect x="3.00024" y="3.900237" width="161.99952" height="160.199525"/>
  </clipPath>
 </defs>
</svg>
