<?xml version="1.0" encoding="utf-8" standalone="no"?>
<!DOCTYPE svg PUBLIC "-//W3C//DTD SVG 1.1//EN"
  "http://www.w3.org/Graphics/SVG/1.1/DTD/svg11.dtd">
<svg xmlns:xlink="http://www.w3.org/1999/xlink" width="400pt" height="237.5pt" viewBox="0 0 400 237.5" xmlns="http://www.w3.org/2000/svg" version="1.1">
 <metadata>
  <rdf:RDF xmlns:dc="http://purl.org/dc/elements/1.1/" xmlns:cc="http://creativecommons.org/ns#" xmlns:rdf="http://www.w3.org/1999/02/22-rdf-syntax-ns#">
   <cc:Work>
    <dc:type rdf:resource="http://purl.org/dc/dcmitype/StillImage"/>
    
    <dc:format>image/svg+xml</dc:format>
    <dc:creator>
     <cc:Agent>
      <dc:title>Matplotlib v3.11.2, https://matplotlib.org/</dc:title>
     </cc:Agent>
    </dc:creator>
   </cc:Work>
  </rdf:RDF>
 </metadata>
 <defs>
  <style type="text/css">*{stroke-linejoin: round; stroke-linecap: butt}</style>
 </defs>
 <g id="figure_1">
  <g id="patch_1">
   <path d="M 0 237.5 
L 400 237.5 
L 400 0 
L 0 0 
z
" style="fill: #ffffff"/>
  </g>
  <g id="axes_1">
   <g id="line2d_1">
    <path d="M 16.581491 187.496003 
L 16.581491 32.281705 
" clip-path="url(#pccbc2cba73)" style="fill: none; stroke: #cbd5e1; stroke-linecap: square"/>
   </g>
   <g id="line2d_2">
    <path d="M 55.385066 187.496003 
L 55.385066 32.281705 
" clip-path="url(#pccbc2cba73)" style="fill: none; stroke: #cbd5e1; stroke-linecap: square"/>
   </g>
   <g id="line2d_3">
    <path d="M 94.18864 187.496003 
L 94.18864 32.281705 
" clip-path="url(#pccbc2cba73)" style="fill: none; stroke: #cbd5e1; stroke-linecap: square"/>
   </g>
   <g id="line2d_4">
    <path d="M 132.992215 187.496003 
L 132.992215 32.281705 
" clip-path="url(#pccbc2cba73)" style="fill: none; stroke: #cbd5e1; stroke-linecap: square"/>
   </g>
   <g id="line2d_5">
    <path d="M 171.795789 187.496003 
L 171.795789 32.281705 
" clip-path="url(#pccbc2cba73)" style="fill: none; stroke: #cbd5e1; stroke-linecap: square"/>
   </g>
   <g id="line2d_6">
    <path d="M 16.581491 187.496003 
L 171.795789 187.496003 
" clip-path="url(#pccbc2cba73)" style="fill: none; stroke: #cbd5e1; stroke-linecap: square"/>
   </g>
   <g id="line2d_7">
    <path d="M 16.581491 148.692428 
L 171.795789 148.692428 
" clip-path="url(#pccbc2cba73)" style="fill: none; stroke: #cbd5e1; stroke-linecap: square"/>
   </g>
   <g id="line2d_8">
    <path d="M 16.581491 109.888854 
L 171.795789 109.888854 
" clip-path="url(#pccbc2cba73)" style="fill: none; stroke: #cbd5e1; stroke-linecap: square"/>
   </g>
   <g id="line2d_9">
    <path d="M 16.581491 71.085279 
L 171.795789 71.085279 
" clip-path="url(#pccbc2cba73)" style="fill: none; stroke: #cbd5e1; stroke-linecap: square"/>
   </g>
   <g id="line2d_10">
    <path d="M 16.581491 32.281705 
L 171.795789 32.281705 
" clip-path="url(#pccbc2cba73)" style="fill: none; stroke: #cbd5e1; stroke-linecap: square"/>
   </g>
   <g id="line2d_11">
    <path d="M 16.581491 187.496003 
L 171.795789 32.281705 
" clip-path="url(#pccbc2cba73)" style="fill: none; stroke-dasharray: 8,6.4; stroke-dashoffset: 0; stroke: #e11d48; stroke-width: 1.6"/>
   </g>
   <g id="line2d_12">
    <path d="M 16.581491 148.692428 
L 132.992215 32.281705 
" clip-path="url(#pccbc2cba73)" style="fill: none; stroke-dasharray: 6.8,6.8; stroke-dashoffset: 0; stroke: #f59e0b; stroke-width: 1.7"/>
   </g>
   <g id="line2d_13">
    <path d="M 16.581491 187.496003 
L 55.385066 187.496003 
L 55.385066 148.692428 
L 94.18864 148.692428 
L 94.18864 109.888854 
L 94.18864 71.085279 
" clip-path="url(#pccbc2cba73)" style="fill: none; stroke: #2563eb; stroke-width: 4; stroke-linecap: round"/>
   </g>
   <g id="line2d_14">
    <path d="M 94.18864 71.085279 
L 171.795789 71.085279 
" clip-path="url(#pccbc2cba73)" style="fill: none; stroke: #ea580c; stroke-width: 4; stroke-linecap: round"/>
   </g>
   <g id="line2d_15">
    <path d="M 171.795789 71.085279 
L 171.795789 32.281705 
" clip-path="url(#pccbc2cba73)" style="fill: none; stroke: #ea580c; stroke-width: 4; stroke-linecap: round"/>
   </g>
   <g id="text_1">
    <!-- first crossing (2,3) -->
    <g style="fill: #b91c1c" transform="translate(98.845069 57.504028) scale(0.1 -0.1)">
     <defs>
      <path id="CMR17-d" d="M 2553 2816 
C 2400 2809 1926 2777 1804 2764 
C 1766 2758 1753 2758 1676 2758 
L 947 2758 
L 947 3517 
C 947 4127 1433 4416 1817 4416 
C 1939 4416 2214 4383 2355 4160 
C 2291 4160 2086 4160 2086 3935 
C 2086 3782 2188 3705 2316 3705 
C 2432 3705 2547 3769 2547 3942 
C 2547 4265 2240 4518 1843 4518 
C 1337 4518 633 4225 633 3517 
L 633 2758 
L 121 2758 
L 121 2591 
L 633 2591 
L 633 442 
C 633 198 608 166 198 166 
L 198 0 
C 352 12 633 12 793 12 
C 960 12 1241 12 1395 0 
L 1395 166 
C 985 166 960 192 960 442 
L 960 2591 
L 1900 2591 
C 2176 2591 2227 2534 2227 2251 
L 2227 442 
C 2227 198 2201 166 1792 166 
L 1792 0 
C 1945 12 2227 12 2387 12 
C 2553 12 2835 12 2988 0 
L 2988 166 
C 2579 166 2553 192 2553 442 
L 2553 2816 
z
" transform="scale(0.015625)"/>
      <path id="CMR17-74" d="M 960 1517 
C 960 2134 1222 2713 1702 2713 
C 1747 2713 1792 2707 1836 2687 
C 1836 2687 1696 2642 1696 2475 
C 1696 2321 1817 2257 1913 2257 
C 1990 2257 2131 2302 2131 2482 
C 2131 2687 1926 2816 1708 2816 
C 1222 2816 1011 2340 947 2115 
L 940 2115 
L 940 2816 
L 198 2745 
L 198 2578 
C 576 2578 633 2540 633 2231 
L 633 443 
C 633 198 608 166 198 166 
L 198 0 
C 352 12 646 12 812 12 
C 998 12 1324 12 1497 0 
L 1497 166 
C 1036 166 960 166 960 455 
L 960 1517 
z
" transform="scale(0.015625)"/>
      <path id="CMR17-75" d="M 1977 2688 
C 1977 2803 1971 2809 1932 2809 
C 1907 2809 1900 2803 1824 2707 
C 1804 2681 1747 2617 1728 2592 
C 1523 2809 1235 2816 1126 2816 
C 416 2816 160 2444 160 2073 
C 160 1497 812 1363 998 1324 
C 1401 1241 1542 1216 1676 1100 
C 1760 1024 1900 883 1900 652 
C 1900 384 1747 38 1158 38 
C 601 38 403 460 288 1024 
C 268 1113 268 1120 217 1120 
C 166 1120 160 1113 160 985 
L 160 64 
C 160 -52 166 -58 204 -58 
C 236 -58 243 -52 275 0 
C 313 57 409 211 448 275 
C 576 102 800 -64 1158 -64 
C 1792 -64 2131 281 2131 780 
C 2131 1107 1958 1280 1875 1356 
C 1683 1555 1459 1600 1190 1651 
C 838 1728 390 1817 390 2208 
C 390 2374 480 2726 1126 2726 
C 1811 2726 1849 2086 1862 1881 
C 1868 1849 1900 1843 1920 1843 
C 1977 1843 1977 1862 1977 1971 
L 1977 2688 
z
" transform="scale(0.015625)"/>
      <path id="CMR17-76" d="M 966 2585 
L 1862 2585 
L 1862 2752 
L 966 2752 
L 966 3968 
L 851 3968 
C 838 3292 614 2700 70 2687 
L 70 2585 
L 627 2585 
L 627 778 
C 627 655 627 -64 1369 -64 
C 1747 -64 1964 308 1964 784 
L 1964 1151 
L 1849 1151 
L 1849 790 
C 1849 347 1676 51 1408 51 
C 1222 51 966 179 966 765 
L 966 2585 
z
" transform="scale(0.015625)"/>
      <path id="CMR17-65" d="M 2233 2240 
C 2112 2240 1932 2240 1932 2015 
C 1932 1836 2080 1785 2163 1785 
C 2208 1785 2393 1804 2393 2028 
C 2393 2476 1958 2816 1465 2816 
C 787 2816 211 2201 211 1379 
C 211 521 812 -64 1465 -64 
C 2259 -64 2457 676 2457 747 
C 2457 773 2451 792 2406 792 
C 2361 792 2355 786 2329 702 
C 2163 180 1798 51 1523 51 
C 1113 51 620 431 620 1385 
C 620 2358 1094 2700 1472 2700 
C 1721 2700 2092 2582 2233 2240 
z
" transform="scale(0.015625)"/>
      <path id="CMR17-71" d="M 2758 1356 
C 2758 2176 2163 2816 1465 2816 
C 768 2816 172 2176 172 1356 
C 172 550 768 -64 1465 -64 
C 2163 -64 2758 550 2758 1356 
z
M 1465 51 
C 1164 51 908 230 761 480 
C 601 768 582 1126 582 1408 
C 582 1676 595 2009 761 2297 
C 889 2508 1139 2713 1465 2713 
C 1753 2713 1996 2553 2150 2329 
C 2348 2028 2348 1606 2348 1408 
C 2348 1158 2336 774 2163 467 
C 1984 172 1708 51 1465 51 
z
" transform="scale(0.015625)"/>
      <path id="CMR17-6b" d="M 992 3961 
C 992 4102 876 4224 729 4224 
C 588 4224 467 4108 467 3961 
C 467 3820 582 3699 729 3699 
C 870 3699 992 3814 992 3961 
z
M 243 2745 
L 243 2579 
C 601 2579 652 2540 652 2231 
L 652 443 
C 652 198 627 166 217 166 
L 217 0 
C 371 12 646 12 806 12 
C 960 12 1222 12 1369 0 
L 1369 166 
C 992 166 979 205 979 436 
L 979 2816 
L 243 2745 
z
" transform="scale(0.015625)"/>
      <path id="CMR17-70" d="M 2656 1954 
C 2656 2282 2592 2816 1836 2816 
C 1331 2816 1068 2424 972 2166 
L 966 2166 
L 966 2816 
L 211 2745 
L 211 2578 
C 588 2578 646 2540 646 2231 
L 646 443 
C 646 198 620 166 211 166 
L 211 0 
C 364 12 646 12 812 12 
C 979 12 1267 12 1420 0 
L 1420 166 
C 1011 166 985 192 985 443 
L 985 1678 
C 985 2269 1344 2713 1792 2713 
C 2265 2713 2316 2289 2316 1980 
L 2316 443 
C 2316 198 2291 166 1881 166 
L 1881 0 
C 2035 12 2316 12 2483 12 
C 2649 12 2937 12 3091 0 
L 3091 166 
C 2681 166 2656 192 2656 443 
L 2656 1954 
z
" transform="scale(0.015625)"/>
      <path id="CMR17-69" d="M 710 1165 
C 832 1068 1043 960 1299 960 
C 1804 960 2240 1359 2240 1895 
C 2240 2063 2188 2321 1996 2521 
C 2176 2713 2438 2777 2585 2777 
C 2611 2777 2649 2777 2681 2758 
C 2656 2751 2598 2726 2598 2623 
C 2598 2540 2656 2483 2739 2483 
C 2835 2483 2886 2547 2886 2630 
C 2886 2751 2790 2880 2585 2880 
C 2329 2880 2105 2758 1926 2591 
C 1734 2764 1504 2828 1299 2828 
C 793 2828 358 2431 358 1895 
C 358 1527 569 1294 633 1230 
C 441 1004 441 742 441 710 
C 441 544 505 300 723 166 
C 390 82 128 -184 128 -517 
C 128 -996 736 -1344 1465 -1344 
C 2169 -1344 2803 -1009 2803 -510 
C 2803 384 1856 384 1363 384 
C 1216 384 953 384 921 390 
C 723 422 588 601 588 825 
C 588 883 588 1024 710 1165 
z
M 1299 1068 
C 736 1068 736 1766 736 1895 
C 736 2024 736 2719 1299 2719 
C 1862 2719 1862 2024 1862 1895 
C 1862 1766 1862 1068 1299 1068 
z
M 1465 -1236 
C 825 -1236 384 -883 384 -517 
C 384 -311 492 -118 633 -11 
C 793 102 857 102 1292 102 
C 1817 102 2547 102 2547 -517 
C 2547 -883 2105 -1236 1465 -1236 
z
" transform="scale(0.015625)"/>
      <path id="CMR17-29" d="M 1958 -1562 
C 1958 -1556 1958 -1543 1939 -1524 
C 1644 -1223 857 -403 857 1596 
C 857 3595 1632 4408 1945 4729 
C 1945 4735 1958 4748 1958 4767 
C 1958 4787 1939 4800 1913 4800 
C 1843 4800 1299 4325 985 3620 
C 665 2909 576 2218 576 1603 
C 576 1141 620 360 1004 -467 
C 1312 -1133 1836 -1600 1913 -1600 
C 1945 -1600 1958 -1588 1958 -1562 
z
" transform="scale(0.015625)"/>
      <path id="CMR17-34" d="M 2668 990 
L 2553 990 
C 2489 537 2438 460 2412 422 
C 2380 371 1920 371 1830 371 
L 601 371 
C 832 620 1280 1073 1824 1596 
C 2214 1966 2668 2400 2668 3033 
C 2668 3788 2067 4224 1395 4224 
C 691 4224 262 3603 262 3027 
C 262 2777 448 2745 524 2745 
C 588 2745 780 2783 780 3007 
C 780 3206 614 3264 524 3264 
C 486 3264 448 3257 422 3244 
C 544 3788 915 4057 1305 4057 
C 1862 4057 2227 3616 2227 3033 
C 2227 2477 1900 1998 1536 1583 
L 262 147 
L 262 0 
L 2515 0 
L 2668 990 
z
" transform="scale(0.015625)"/>
      <path id="CMR17-2d" d="M 1011 102 
C 1024 44 1024 25 1024 -76 
C 1024 -451 896 -795 627 -1108 
C 595 -1140 595 -1152 595 -1165 
C 595 -1191 620 -1216 646 -1216 
C 684 -1216 1126 -776 1126 -82 
C 1126 128 1100 524 800 524 
C 659 524 537 428 537 262 
C 537 96 659 0 800 0 
C 876 0 960 32 1011 102 
z
" transform="scale(0.015625)"/>
      <path id="CMR17-35" d="M 1414 2176 
C 1984 2176 2233 1673 2233 1094 
C 2233 322 1824 25 1452 25 
C 1113 25 563 193 390 691 
C 422 678 454 678 486 678 
C 640 678 755 780 755 947 
C 755 1132 614 1216 486 1216 
C 377 1216 211 1164 211 927 
C 211 335 787 -128 1465 -128 
C 2176 -128 2720 432 2720 1087 
C 2720 1718 2208 2176 1600 2246 
C 2086 2347 2553 2776 2553 3353 
C 2553 3856 2048 4224 1472 4224 
C 889 4224 377 3862 377 3347 
C 377 3123 544 3084 627 3084 
C 761 3084 876 3167 876 3334 
C 876 3500 761 3584 627 3584 
C 601 3584 569 3584 544 3571 
C 729 3999 1235 4076 1459 4076 
C 1683 4076 2105 3966 2105 3347 
C 2105 3167 2080 2851 1862 2574 
C 1670 2329 1452 2316 1241 2297 
C 1209 2297 1062 2284 1036 2284 
C 992 2278 966 2272 966 2227 
C 966 2182 972 2176 1100 2176 
L 1414 2176 
z
" transform="scale(0.015625)"/>
      <path id="CMR17-2a" d="M 1683 1596 
C 1683 2057 1638 2839 1254 3665 
C 947 4332 422 4800 345 4800 
C 326 4800 300 4793 300 4761 
C 300 4748 307 4742 313 4729 
C 620 4408 1401 3595 1401 1603 
C 1401 -396 627 -1210 313 -1530 
C 307 -1543 300 -1549 300 -1562 
C 300 -1594 326 -1600 345 -1600 
C 416 -1600 960 -1127 1273 -422 
C 1593 289 1683 981 1683 1596 
z
" transform="scale(0.015625)"/>
     </defs>
     <use xlink:href="#CMR17-d" transform="scale(0.996264)"/>
     <use xlink:href="#CMR17-74" transform="translate(49.742223 0) scale(0.996264)"/>
     <use xlink:href="#CMR17-75" transform="translate(85.022991 0) scale(0.996264)"/>
     <use xlink:href="#CMR17-76" transform="translate(120.824329 0) scale(0.996264)"/>
     <use xlink:href="#CMR17-65" transform="translate(186.181063 0) scale(0.996264)"/>
     <use xlink:href="#CMR17-74" transform="translate(226.666723 0) scale(0.996264)"/>
     <use xlink:href="#CMR17-71" transform="translate(261.947491 0) scale(0.996264)"/>
     <use xlink:href="#CMR17-75" transform="translate(307.637968 0) scale(0.996264)"/>
     <use xlink:href="#CMR17-75" transform="translate(343.439306 0) scale(0.996264)"/>
     <use xlink:href="#CMR17-6b" transform="translate(379.240644 0) scale(0.996264)"/>
     <use xlink:href="#CMR17-70" transform="translate(404.111702 0) scale(0.996264)"/>
     <use xlink:href="#CMR17-69" transform="translate(455.007072 0) scale(0.996264)"/>
     <use xlink:href="#CMR17-29" transform="translate(530.773515 0) scale(0.996264)"/>
     <use xlink:href="#CMR17-34" transform="translate(566.054283 0) scale(0.996264)"/>
     <use xlink:href="#CMR17-2d" transform="translate(611.74476 0) scale(0.996264)"/>
     <use xlink:href="#CMR17-35" transform="translate(636.615819 0) scale(0.996264)"/>
     <use xlink:href="#CMR17-2a" transform="translate(682.306296 0) scale(0.996264)"/>
    </g>
   </g>
   <g id="text_2">
    <!-- (0,0) -->
    <g transform="translate(16.581491 203.793504) scale(0.1 -0.1)">
     <defs>
      <path id="CMR17-32" d="M 2688 2038 
C 2688 2430 2681 3099 2412 3613 
C 2176 4063 1798 4224 1465 4224 
C 1158 4224 768 4082 524 3620 
C 268 3137 243 2539 243 2038 
C 243 1671 249 1112 448 623 
C 723 -39 1216 -128 1465 -128 
C 1760 -128 2208 -7 2470 604 
C 2662 1048 2688 1568 2688 2038 
z
M 1465 -26 
C 1056 -26 812 328 723 816 
C 652 1196 652 1749 652 2109 
C 652 2604 652 3015 736 3407 
C 857 3954 1216 4121 1465 4121 
C 1728 4121 2067 3947 2188 3420 
C 2272 3054 2278 2623 2278 2109 
C 2278 1691 2278 1176 2201 797 
C 2067 96 1689 -26 1465 -26 
z
" transform="scale(0.015625)"/>
     </defs>
     <use xlink:href="#CMR17-29" transform="scale(0.996264)"/>
     <use xlink:href="#CMR17-32" transform="translate(35.280768 0) scale(0.996264)"/>
     <use xlink:href="#CMR17-2d" transform="translate(80.971245 0) scale(0.996264)"/>
     <use xlink:href="#CMR17-32" transform="translate(105.842303 0) scale(0.996264)"/>
     <use xlink:href="#CMR17-2a" transform="translate(151.532781 0) scale(0.996264)"/>
    </g>
   </g>
   <g id="text_3">
    <!-- (4,4) -->
    <g transform="translate(158.214538 21.80474) scale(0.1 -0.1)">
     <defs>
      <path id="CMR17-36" d="M 2150 4147 
C 2150 4281 2144 4288 2028 4288 
L 128 1254 
L 128 1088 
L 1779 1088 
L 1779 460 
C 1779 230 1766 166 1318 166 
L 1196 166 
L 1196 0 
C 1401 12 1747 12 1964 12 
C 2182 12 2528 12 2732 0 
L 2732 166 
L 2611 166 
C 2163 166 2150 230 2150 460 
L 2150 1088 
L 2803 1088 
L 2803 1254 
L 2150 1254 
L 2150 4147 
z
M 1798 3723 
L 1798 1254 
L 256 1254 
L 1798 3723 
z
" transform="scale(0.015625)"/>
     </defs>
     <use xlink:href="#CMR17-29" transform="scale(0.996264)"/>
     <use xlink:href="#CMR17-36" transform="translate(35.280768 0) scale(0.996264)"/>
     <use xlink:href="#CMR17-2d" transform="translate(80.971245 0) scale(0.996264)"/>
     <use xlink:href="#CMR17-36" transform="translate(105.842303 0) scale(0.996264)"/>
     <use xlink:href="#CMR17-2a" transform="translate(151.532781 0) scale(0.996264)"/>
    </g>
   </g>
   <g id="text_4">
    <!-- blue: unchanged prefix -->
    <g style="fill: #2563eb" transform="translate(16.581491 220.479041) scale(0.1 -0.1)">
     <defs>
      <path id="CMR17-64" d="M 960 4416 
L 198 4345 
L 198 4179 
C 576 4179 633 4141 633 3843 
L 633 -13 
L 748 -13 
L 934 445 
C 1120 141 1395 -64 1766 -64 
C 2406 -64 3052 503 3052 1382 
C 3052 2209 2476 2816 1830 2816 
C 1433 2816 1152 2603 960 2351 
L 960 4416 
z
M 972 2022 
C 972 2138 972 2157 1062 2293 
C 1312 2681 1670 2713 1792 2713 
C 1984 2713 2643 2610 2643 1388 
C 2643 109 1888 38 1734 38 
C 1536 38 1248 115 1043 490 
C 972 613 972 626 972 742 
L 972 2022 
z
" transform="scale(0.015625)"/>
      <path id="CMR17-6e" d="M 979 4416 
L 217 4345 
L 217 4179 
C 595 4179 652 4141 652 3835 
L 652 439 
C 652 198 627 166 217 166 
L 217 0 
C 371 12 652 12 812 12 
C 979 12 1260 12 1414 0 
L 1414 166 
C 1004 166 979 191 979 439 
L 979 4416 
z
" transform="scale(0.015625)"/>
      <path id="CMR17-77" d="M 1881 2745 
L 1881 2579 
C 2259 2579 2316 2540 2316 2229 
L 2316 1053 
C 2316 510 2028 38 1555 38 
C 1030 38 985 355 985 691 
L 985 2816 
L 211 2745 
L 211 2579 
C 467 2579 640 2579 646 2320 
L 646 1079 
C 646 646 646 368 812 187 
C 896 103 1056 -64 1516 -64 
C 2060 -64 2272 400 2323 536 
L 2329 536 
L 2329 -64 
L 3091 -13 
L 3091 154 
C 2713 154 2656 193 2656 503 
L 2656 2816 
L 1881 2745 
z
" transform="scale(0.015625)"/>
      <path id="CMR17-67" d="M 2438 1503 
C 2464 1529 2464 1542 2464 1606 
C 2464 2251 2118 2816 1388 2816 
C 710 2816 172 2175 172 1394 
C 172 554 780 -64 1459 -64 
C 2176 -64 2457 619 2457 755 
C 2457 800 2419 800 2406 800 
C 2361 800 2355 787 2329 709 
C 2188 270 1836 51 1504 51 
C 1228 51 953 206 780 490 
C 582 819 582 1200 582 1503 
L 2438 1503 
z
M 588 1600 
C 633 2511 1126 2713 1382 2713 
C 1817 2713 2112 2308 2118 1600 
L 588 1600 
z
" transform="scale(0.015625)"/>
      <path id="CMR17-3c" d="M 1062 2489 
C 1062 2649 934 2752 800 2752 
C 672 2752 537 2649 537 2489 
C 537 2329 665 2227 800 2227 
C 928 2227 1062 2329 1062 2489 
z
M 1062 262 
C 1062 422 934 524 800 524 
C 672 524 537 422 537 262 
C 537 102 665 0 800 0 
C 928 0 1062 102 1062 262 
z
" transform="scale(0.015625)"/>
      <path id="CMR17-6a" d="M 2656 1954 
C 2656 2282 2592 2816 1836 2816 
C 1312 2816 1056 2392 979 2179 
L 972 2179 
L 972 4416 
L 211 4345 
L 211 4179 
C 588 4179 646 4141 646 3843 
L 646 443 
C 646 198 620 166 211 166 
L 211 0 
C 364 12 646 12 812 12 
C 979 12 1267 12 1420 0 
L 1420 166 
C 1011 166 985 192 985 443 
L 985 1678 
C 985 2269 1344 2713 1792 2713 
C 2265 2713 2316 2289 2316 1980 
L 2316 443 
C 2316 198 2291 166 1881 166 
L 1881 0 
C 2035 12 2316 12 2483 12 
C 2649 12 2937 12 3091 0 
L 3091 166 
C 2681 166 2656 192 2656 443 
L 2656 1954 
z
" transform="scale(0.015625)"/>
      <path id="CMR17-63" d="M 2304 1656 
C 2304 2048 2304 2275 2035 2534 
C 1798 2751 1523 2816 1305 2816 
C 800 2816 435 2408 435 1977 
C 435 1740 627 1728 665 1728 
C 748 1728 896 1779 896 1958 
C 896 2118 774 2188 665 2188 
C 640 2188 608 2182 588 2176 
C 723 2594 1068 2713 1292 2713 
C 1612 2713 1964 2421 1964 1875 
L 1964 1632 
C 1587 1619 1132 1568 774 1373 
C 371 1147 256 822 256 576 
C 256 77 832 -64 1171 -64 
C 1523 -64 1849 135 1990 505 
C 2003 219 2182 -39 2464 -39 
C 2598 -39 2937 51 2937 563 
L 2937 926 
L 2822 926 
L 2822 557 
C 2822 161 2649 109 2566 109 
C 2304 109 2304 446 2304 732 
L 2304 1656 
z
M 1964 887 
C 1964 323 1568 38 1216 38 
C 896 38 646 278 646 576 
C 646 771 729 1114 1100 1322 
C 1408 1497 1760 1523 1964 1536 
L 1964 887 
z
" transform="scale(0.015625)"/>
      <path id="CMR17-66" d="M 1868 4345 
L 1868 4179 
C 2246 4179 2304 4141 2304 3843 
L 2304 2371 
C 2278 2403 2016 2816 1497 2816 
C 844 2816 211 2228 211 1376 
C 211 529 806 -64 1433 -64 
C 1977 -64 2259 361 2291 406 
L 2291 -64 
L 3065 -13 
L 3065 154 
C 2688 154 2630 193 2630 503 
L 2630 4416 
L 1868 4345 
z
M 2291 762 
C 2291 568 2176 393 2028 264 
C 1811 70 1593 38 1472 38 
C 1286 38 620 135 620 1369 
C 620 2636 1363 2713 1529 2713 
C 1824 2713 2060 2545 2208 2313 
C 2291 2177 2291 2157 2291 2041 
L 2291 762 
z
" transform="scale(0.015625)"/>
      <path id="CMR17-72" d="M 1408 -1114 
C 998 -1114 972 -1088 972 -834 
L 972 380 
C 1158 109 1427 -64 1766 -64 
C 2406 -64 3052 503 3052 1382 
C 3052 2196 2496 2816 1836 2816 
C 1452 2816 1139 2603 960 2345 
L 960 2816 
L 198 2745 
L 198 2577 
C 576 2577 633 2539 633 2228 
L 633 -834 
C 633 -1081 608 -1114 198 -1114 
L 198 -1280 
C 352 -1268 633 -1268 800 -1268 
C 966 -1268 1254 -1268 1408 -1280 
L 1408 -1114 
z
M 972 2015 
C 972 2106 972 2241 1222 2481 
C 1254 2506 1472 2700 1792 2700 
C 2259 2700 2643 2112 2643 1376 
C 2643 639 2233 38 1728 38 
C 1497 38 1248 148 1056 451 
C 972 594 972 632 972 736 
L 972 2015 
z
" transform="scale(0.015625)"/>
      <path id="CMR17-7a" d="M 1664 1491 
C 1856 1740 2073 2022 2252 2233 
C 2464 2476 2707 2579 2988 2585 
L 2988 2752 
C 2880 2745 2656 2739 2540 2739 
C 2368 2739 2169 2739 2022 2752 
L 2022 2585 
C 2112 2572 2163 2508 2163 2419 
C 2163 2304 2099 2233 2067 2188 
L 1593 1587 
L 1030 2323 
C 972 2393 972 2406 972 2438 
C 972 2515 1036 2579 1145 2585 
L 1145 2752 
C 992 2739 716 2739 556 2739 
C 384 2739 179 2739 38 2752 
L 38 2585 
C 384 2585 460 2560 614 2368 
L 1350 1414 
C 1363 1401 1395 1363 1395 1344 
C 1395 1318 838 633 768 544 
C 480 198 179 172 6 166 
L 6 0 
C 115 6 339 12 454 12 
C 582 12 864 12 979 0 
L 979 166 
C 940 172 838 185 838 332 
C 838 448 889 518 947 595 
L 1478 1248 
L 2035 524 
C 2086 454 2163 358 2163 313 
C 2163 224 2086 172 1984 166 
L 1984 0 
C 2137 12 2412 12 2572 12 
C 2745 12 2950 12 3091 0 
L 3091 166 
C 2771 166 2675 179 2521 377 
L 1664 1491 
z
" transform="scale(0.015625)"/>
     </defs>
     <use xlink:href="#CMR17-64" transform="scale(0.996264)"/>
     <use xlink:href="#CMR17-6e" transform="translate(50.89537 0) scale(0.996264)"/>
     <use xlink:href="#CMR17-77" transform="translate(75.766428 0) scale(0.996264)"/>
     <use xlink:href="#CMR17-67" transform="translate(126.661798 0) scale(0.996264)"/>
     <use xlink:href="#CMR17-3c" transform="translate(167.147459 0) scale(0.996264)"/>
     <use xlink:href="#CMR17-77" transform="translate(232.504177 0) scale(0.996264)"/>
     <use xlink:href="#CMR17-70" transform="translate(283.399547 0) scale(0.996264)"/>
     <use xlink:href="#CMR17-65" transform="translate(334.294917 0) scale(0.996264)"/>
     <use xlink:href="#CMR17-6a" transform="translate(372.178124 0) scale(0.996264)"/>
     <use xlink:href="#CMR17-63" transform="translate(423.073493 0) scale(0.996264)"/>
     <use xlink:href="#CMR17-70" transform="translate(468.76397 0) scale(0.996264)"/>
     <use xlink:href="#CMR17-69" transform="translate(519.65934 0) scale(0.996264)"/>
     <use xlink:href="#CMR17-67" transform="translate(565.349817 0) scale(0.996264)"/>
     <use xlink:href="#CMR17-66" transform="translate(605.835478 0) scale(0.996264)"/>
     <use xlink:href="#CMR17-72" transform="translate(686.806814 0) scale(0.996264)"/>
     <use xlink:href="#CMR17-74" transform="translate(737.702184 0) scale(0.996264)"/>
     <use xlink:href="#CMR17-67" transform="translate(772.982952 0) scale(0.996264)"/>
     <use xlink:href="#CMR17-d" transform="translate(813.468612 0) scale(0.996264)"/>
     <use xlink:href="#CMR17-7a" transform="translate(863.210835 0) scale(0.996264)"/>
    </g>
   </g>
   <g id="text_5">
    <!-- orange: reflected tail -->
    <g style="fill: #ea580c" transform="translate(16.581491 234.060292) scale(0.1 -0.1)">
     <defs>
      <path id="CMR17-e" d="M 2553 4428 
C 2483 4415 2425 4403 2342 4383 
C 2156 4480 1913 4480 1849 4480 
C 1305 4480 633 4174 633 3494 
L 633 2752 
L 121 2752 
L 121 2585 
L 633 2585 
L 633 441 
C 633 198 608 166 198 166 
L 198 0 
C 352 12 633 12 793 12 
C 960 12 1241 12 1395 0 
L 1395 166 
C 985 166 960 192 960 441 
L 960 2585 
L 2227 2585 
L 2227 441 
C 2227 198 2201 166 1792 166 
L 1792 0 
C 1945 12 2227 12 2387 12 
C 2553 12 2835 12 2988 0 
L 2988 166 
C 2579 166 2553 192 2553 441 
L 2553 4428 
z
M 947 2752 
L 947 3494 
C 947 4053 1369 4377 1836 4377 
C 1868 4377 2220 4364 2220 4301 
C 2220 4294 2214 4288 2182 4256 
C 2124 4218 2099 4155 2099 4091 
C 2099 4002 2144 3926 2227 3894 
L 2227 2752 
L 947 2752 
z
" transform="scale(0.015625)"/>
     </defs>
     <use xlink:href="#CMR17-71" transform="scale(0.996264)"/>
     <use xlink:href="#CMR17-74" transform="translate(45.690477 0) scale(0.996264)"/>
     <use xlink:href="#CMR17-63" transform="translate(80.971245 0) scale(0.996264)"/>
     <use xlink:href="#CMR17-70" transform="translate(126.661722 0) scale(0.996264)"/>
     <use xlink:href="#CMR17-69" transform="translate(177.557092 0) scale(0.996264)"/>
     <use xlink:href="#CMR17-67" transform="translate(223.247569 0) scale(0.996264)"/>
     <use xlink:href="#CMR17-3c" transform="translate(263.733229 0) scale(0.996264)"/>
     <use xlink:href="#CMR17-74" transform="translate(329.089948 0) scale(0.996264)"/>
     <use xlink:href="#CMR17-67" transform="translate(364.370716 0) scale(0.996264)"/>
     <use xlink:href="#CMR17-e" transform="translate(404.856377 0) scale(0.996264)"/>
     <use xlink:href="#CMR17-67" transform="translate(454.5986 0) scale(0.996264)"/>
     <use xlink:href="#CMR17-65" transform="translate(495.08426 0) scale(0.996264)"/>
     <use xlink:href="#CMR17-76" transform="translate(535.569921 0) scale(0.996264)"/>
     <use xlink:href="#CMR17-67" transform="translate(570.850689 0) scale(0.996264)"/>
     <use xlink:href="#CMR17-66" transform="translate(611.336349 0) scale(0.996264)"/>
     <use xlink:href="#CMR17-76" transform="translate(692.307685 0) scale(0.996264)"/>
     <use xlink:href="#CMR17-63" transform="translate(727.588453 0) scale(0.996264)"/>
     <use xlink:href="#CMR17-6b" transform="translate(773.27893 0) scale(0.996264)"/>
     <use xlink:href="#CMR17-6e" transform="translate(798.149989 0) scale(0.996264)"/>
    </g>
   </g>
   <g id="text_6">
    <!-- A path that crosses y=x -->
    <g transform="translate(31.498686 12.700454) scale(0.12 -0.12)">
     <defs>
      <path id="CMR17-43" d="M 2323 4441 
C 2291 4524 2278 4544 2214 4544 
C 2150 4544 2137 4524 2105 4441 
L 748 580 
C 627 236 371 166 147 166 
L 147 0 
C 262 12 518 12 640 12 
C 800 12 1056 12 1209 0 
L 1209 166 
C 908 179 864 382 864 459 
C 864 516 876 548 889 586 
L 1228 1536 
L 2905 1536 
L 3289 453 
C 3321 376 3321 363 3321 338 
C 3321 166 3046 166 2924 166 
L 2924 0 
C 3110 12 3443 12 3641 12 
C 3808 12 4128 12 4281 0 
L 4281 166 
C 3942 166 3827 166 3744 402 
L 2323 4441 
z
M 2067 3924 
L 2848 1702 
L 1286 1702 
L 2067 3924 
z
" transform="scale(0.015625)"/>
      <path id="CMR17-7b" d="M 2496 2183 
C 2656 2579 2944 2585 3033 2585 
L 3033 2752 
C 2912 2745 2752 2739 2630 2739 
C 2496 2739 2284 2739 2156 2752 
L 2156 2585 
C 2400 2566 2406 2384 2406 2332 
C 2406 2268 2393 2235 2361 2158 
L 1664 409 
L 902 2300 
C 870 2378 870 2423 870 2430 
C 870 2572 1017 2585 1171 2585 
L 1171 2752 
C 1017 2739 742 2739 582 2739 
C 409 2739 204 2739 64 2752 
L 64 2585 
C 409 2585 448 2553 531 2345 
L 1484 -31 
C 1196 -795 1030 -1242 627 -1242 
C 556 -1242 396 -1223 281 -1106 
C 428 -1093 492 -1002 492 -892 
C 492 -782 416 -685 288 -685 
C 147 -685 76 -782 76 -899 
C 76 -1158 339 -1344 627 -1344 
C 998 -1344 1228 -983 1356 -659 
L 2496 2183 
z
" transform="scale(0.015625)"/>
      <path id="CMR17-3f" d="M 4115 2048 
C 4211 2048 4307 2048 4307 2156 
C 4307 2272 4198 2272 4089 2272 
L 512 2272 
C 403 2272 294 2272 294 2156 
C 294 2048 390 2048 486 2048 
L 4115 2048 
z
M 4089 927 
C 4198 927 4307 927 4307 1043 
C 4307 1152 4211 1152 4115 1152 
L 486 1152 
C 390 1152 294 1152 294 1043 
C 294 927 403 927 512 927 
L 4089 927 
z
" transform="scale(0.015625)"/>
     </defs>
     <use xlink:href="#CMR17-43" transform="scale(0.996264)"/>
     <use xlink:href="#CMR17-72" transform="translate(99.148396 0) scale(0.996264)"/>
     <use xlink:href="#CMR17-63" transform="translate(150.043766 0) scale(0.996264)"/>
     <use xlink:href="#CMR17-76" transform="translate(195.734243 0) scale(0.996264)"/>
     <use xlink:href="#CMR17-6a" transform="translate(231.015011 0) scale(0.996264)"/>
     <use xlink:href="#CMR17-76" transform="translate(311.986347 0) scale(0.996264)"/>
     <use xlink:href="#CMR17-6a" transform="translate(347.267115 0) scale(0.996264)"/>
     <use xlink:href="#CMR17-63" transform="translate(398.162485 0) scale(0.996264)"/>
     <use xlink:href="#CMR17-76" transform="translate(443.852962 0) scale(0.996264)"/>
     <use xlink:href="#CMR17-65" transform="translate(509.209696 0) scale(0.996264)"/>
     <use xlink:href="#CMR17-74" transform="translate(549.695356 0) scale(0.996264)"/>
     <use xlink:href="#CMR17-71" transform="translate(584.976124 0) scale(0.996264)"/>
     <use xlink:href="#CMR17-75" transform="translate(630.666601 0) scale(0.996264)"/>
     <use xlink:href="#CMR17-75" transform="translate(666.467939 0) scale(0.996264)"/>
     <use xlink:href="#CMR17-67" transform="translate(702.269276 0) scale(0.996264)"/>
     <use xlink:href="#CMR17-75" transform="translate(742.754937 0) scale(0.996264)"/>
     <use xlink:href="#CMR17-7b" transform="translate(808.632241 0) scale(0.996264)"/>
     <use xlink:href="#CMR17-3f" transform="translate(856.925157 0) scale(0.996264)"/>
     <use xlink:href="#CMR17-7a" transform="translate(928.639945 0) scale(0.996264)"/>
    </g>
   </g>
   <g id="PathCollection_1">
    <defs>
     <path id="md099fcd349" d="M 0 5.91608 
C 1.568963 5.91608 3.073876 5.292724 4.1833 4.1833 
C 5.292724 3.073876 5.91608 1.568963 5.91608 0 
C 5.91608 -1.568963 5.292724 -3.073876 4.1833 -4.1833 
C 3.073876 -5.292724 1.568963 -5.91608 0 -5.91608 
C -1.568963 -5.91608 -3.073876 -5.292724 -4.1833 -4.1833 
C -5.292724 -3.073876 -5.91608 -1.568963 -5.91608 0 
C -5.91608 1.568963 -5.292724 3.073876 -4.1833 4.1833 
C -3.073876 5.292724 -1.568963 5.91608 0 5.91608 
z
" style="stroke: #dc2626; stroke-width: 3"/>
    </defs>
    <g clip-path="url(#pccbc2cba73)">
     <use xlink:href="#md099fcd349" x="94.18864" y="71.085279" style="fill: #ffffff; stroke: #dc2626; stroke-width: 3"/>
    </g>
   </g>
  </g>
  <g id="axes_2">
   <g id="line2d_16">
    <path d="M 217.592984 191.105024 
L 217.592984 28.672684 
" clip-path="url(#pcc140e30cd)" style="fill: none; stroke: #cbd5e1; stroke-linecap: square"/>
   </g>
   <g id="line2d_17">
    <path d="M 250.079452 191.105024 
L 250.079452 28.672684 
" clip-path="url(#pcc140e30cd)" style="fill: none; stroke: #cbd5e1; stroke-linecap: square"/>
   </g>
   <g id="line2d_18">
    <path d="M 282.56592 191.105024 
L 282.56592 28.672684 
" clip-path="url(#pcc140e30cd)" style="fill: none; stroke: #cbd5e1; stroke-linecap: square"/>
   </g>
   <g id="line2d_19">
    <path d="M 315.052388 191.105024 
L 315.052388 28.672684 
" clip-path="url(#pcc140e30cd)" style="fill: none; stroke: #cbd5e1; stroke-linecap: square"/>
   </g>
   <g id="line2d_20">
    <path d="M 347.538856 191.105024 
L 347.538856 28.672684 
" clip-path="url(#pcc140e30cd)" style="fill: none; stroke: #cbd5e1; stroke-linecap: square"/>
   </g>
   <g id="line2d_21">
    <path d="M 217.592984 191.105024 
L 347.538856 191.105024 
" clip-path="url(#pcc140e30cd)" style="fill: none; stroke: #cbd5e1; stroke-linecap: square"/>
   </g>
   <g id="line2d_22">
    <path d="M 217.592984 158.618556 
L 347.538856 158.618556 
" clip-path="url(#pcc140e30cd)" style="fill: none; stroke: #cbd5e1; stroke-linecap: square"/>
   </g>
   <g id="line2d_23">
    <path d="M 217.592984 126.132088 
L 347.538856 126.132088 
" clip-path="url(#pcc140e30cd)" style="fill: none; stroke: #cbd5e1; stroke-linecap: square"/>
   </g>
   <g id="line2d_24">
    <path d="M 217.592984 93.64562 
L 347.538856 93.64562 
" clip-path="url(#pcc140e30cd)" style="fill: none; stroke: #cbd5e1; stroke-linecap: square"/>
   </g>
   <g id="line2d_25">
    <path d="M 217.592984 61.159152 
L 347.538856 61.159152 
" clip-path="url(#pcc140e30cd)" style="fill: none; stroke: #cbd5e1; stroke-linecap: square"/>
   </g>
   <g id="line2d_26">
    <path d="M 217.592984 28.672684 
L 347.538856 28.672684 
" clip-path="url(#pcc140e30cd)" style="fill: none; stroke: #cbd5e1; stroke-linecap: square"/>
   </g>
   <g id="line2d_27">
    <path d="M 217.592984 191.105024 
L 347.538856 61.159152 
" clip-path="url(#pcc140e30cd)" style="fill: none; stroke-dasharray: 8,6.4; stroke-dashoffset: 0; stroke: #e11d48; stroke-width: 1.6"/>
   </g>
   <g id="line2d_28">
    <path d="M 217.592984 158.618556 
L 347.538856 28.672684 
" clip-path="url(#pcc140e30cd)" style="fill: none; stroke-dasharray: 6.8,6.8; stroke-dashoffset: 0; stroke: #f59e0b; stroke-width: 1.7"/>
   </g>
   <g id="line2d_29">
    <path d="M 217.592984 191.105024 
L 250.079452 191.105024 
L 250.079452 158.618556 
L 282.56592 158.618556 
L 282.56592 126.132088 
L 282.56592 93.64562 
" clip-path="url(#pcc140e30cd)" style="fill: none; stroke: #2563eb; stroke-width: 4; stroke-linecap: round"/>
   </g>
   <g id="line2d_30">
    <path d="M 282.56592 93.64562 
L 282.56592 28.672684 
" clip-path="url(#pcc140e30cd)" style="fill: none; stroke: #ea580c; stroke-width: 4; stroke-linecap: round"/>
   </g>
   <g id="line2d_31">
    <path d="M 282.56592 28.672684 
L 315.052388 28.672684 
" clip-path="url(#pcc140e30cd)" style="fill: none; stroke: #ea580c; stroke-width: 4; stroke-linecap: round"/>
   </g>
   <g id="text_7">
    <!-- same first crossing (2,3) -->
    <g style="fill: #b91c1c" transform="translate(286.464296 82.275356) scale(0.1 -0.1)">
     <defs>
      <path id="CMR17-6f" d="M 4326 1954 
C 4326 2276 4269 2816 3507 2816 
C 3072 2816 2771 2520 2656 2173 
L 2649 2173 
C 2572 2700 2195 2816 1836 2816 
C 1331 2816 1068 2424 972 2166 
L 966 2166 
L 966 2816 
L 211 2745 
L 211 2578 
C 588 2578 646 2540 646 2231 
L 646 443 
C 646 198 620 166 211 166 
L 211 0 
C 364 12 646 12 812 12 
C 979 12 1267 12 1420 0 
L 1420 166 
C 1011 166 985 192 985 443 
L 985 1678 
C 985 2269 1344 2713 1792 2713 
C 2265 2713 2316 2289 2316 1980 
L 2316 443 
C 2316 198 2291 166 1881 166 
L 1881 0 
C 2035 12 2316 12 2483 12 
C 2649 12 2937 12 3091 0 
L 3091 166 
C 2681 166 2656 192 2656 443 
L 2656 1678 
C 2656 2269 3014 2713 3462 2713 
C 3936 2713 3987 2289 3987 1980 
L 3987 443 
C 3987 198 3961 166 3552 166 
L 3552 0 
C 3705 12 3987 12 4153 12 
C 4320 12 4608 12 4761 0 
L 4761 166 
C 4352 166 4326 192 4326 443 
L 4326 1954 
z
" transform="scale(0.015625)"/>
     </defs>
     <use xlink:href="#CMR17-75" transform="scale(0.996264)"/>
     <use xlink:href="#CMR17-63" transform="translate(35.801338 0) scale(0.996264)"/>
     <use xlink:href="#CMR17-6f" transform="translate(81.491815 0) scale(0.996264)"/>
     <use xlink:href="#CMR17-67" transform="translate(158.411405 0) scale(0.996264)"/>
     <use xlink:href="#CMR17-d" transform="translate(228.973031 0) scale(0.996264)"/>
     <use xlink:href="#CMR17-74" transform="translate(278.715255 0) scale(0.996264)"/>
     <use xlink:href="#CMR17-75" transform="translate(313.996023 0) scale(0.996264)"/>
     <use xlink:href="#CMR17-76" transform="translate(349.79736 0) scale(0.996264)"/>
     <use xlink:href="#CMR17-65" transform="translate(415.154094 0) scale(0.996264)"/>
     <use xlink:href="#CMR17-74" transform="translate(455.639755 0) scale(0.996264)"/>
     <use xlink:href="#CMR17-71" transform="translate(490.920523 0) scale(0.996264)"/>
     <use xlink:href="#CMR17-75" transform="translate(536.611 0) scale(0.996264)"/>
     <use xlink:href="#CMR17-75" transform="translate(572.412337 0) scale(0.996264)"/>
     <use xlink:href="#CMR17-6b" transform="translate(608.213675 0) scale(0.996264)"/>
     <use xlink:href="#CMR17-70" transform="translate(633.084734 0) scale(0.996264)"/>
     <use xlink:href="#CMR17-69" transform="translate(683.980103 0) scale(0.996264)"/>
     <use xlink:href="#CMR17-29" transform="translate(759.746547 0) scale(0.996264)"/>
     <use xlink:href="#CMR17-34" transform="translate(795.027315 0) scale(0.996264)"/>
     <use xlink:href="#CMR17-2d" transform="translate(840.717792 0) scale(0.996264)"/>
     <use xlink:href="#CMR17-35" transform="translate(865.58885 0) scale(0.996264)"/>
     <use xlink:href="#CMR17-2a" transform="translate(911.279327 0) scale(0.996264)"/>
    </g>
   </g>
   <g id="text_8">
    <!-- (0,0) -->
    <g transform="translate(217.592984 204.74934) scale(0.1 -0.1)">
     <use xlink:href="#CMR17-29" transform="scale(0.996264)"/>
     <use xlink:href="#CMR17-32" transform="translate(35.280768 0) scale(0.996264)"/>
     <use xlink:href="#CMR17-2d" transform="translate(80.971245 0) scale(0.996264)"/>
     <use xlink:href="#CMR17-32" transform="translate(105.842303 0) scale(0.996264)"/>
     <use xlink:href="#CMR17-2a" transform="translate(151.532781 0) scale(0.996264)"/>
    </g>
   </g>
   <g id="text_9">
    <!-- (3,5) -->
    <g transform="translate(303.682125 19.901337) scale(0.1 -0.1)">
     <defs>
      <path id="CMR17-37" d="M 729 3750 
C 793 3724 1056 3641 1324 3641 
C 1920 3641 2246 3961 2432 4140 
C 2432 4191 2432 4224 2393 4224 
C 2387 4224 2374 4224 2323 4198 
C 2099 4102 1836 4032 1516 4032 
C 1324 4032 1036 4055 723 4191 
C 652 4224 640 4224 633 4224 
C 601 4224 595 4217 595 4090 
L 595 2231 
C 595 2113 595 2080 659 2080 
C 691 2080 704 2093 736 2139 
C 940 2435 1222 2560 1542 2560 
C 1766 2560 2246 2415 2246 1293 
C 2246 1087 2246 716 2054 422 
C 1894 159 1644 25 1369 25 
C 947 25 518 319 403 812 
C 428 806 480 793 505 793 
C 588 793 748 838 748 1036 
C 748 1209 627 1280 505 1280 
C 358 1280 262 1190 262 1011 
C 262 454 704 -128 1382 -128 
C 2041 -128 2668 441 2668 1267 
C 2668 2054 2169 2662 1548 2662 
C 1222 2662 947 2540 729 2304 
L 729 3750 
z
" transform="scale(0.015625)"/>
     </defs>
     <use xlink:href="#CMR17-29" transform="scale(0.996264)"/>
     <use xlink:href="#CMR17-35" transform="translate(35.280768 0) scale(0.996264)"/>
     <use xlink:href="#CMR17-2d" transform="translate(80.971245 0) scale(0.996264)"/>
     <use xlink:href="#CMR17-37" transform="translate(105.842303 0) scale(0.996264)"/>
     <use xlink:href="#CMR17-2a" transform="translate(151.532781 0) scale(0.996264)"/>
    </g>
   </g>
   <g id="text_10">
    <!-- RURUURRU maps to RURUUUUR -->
    <g style="fill: #475569" transform="translate(217.592984 218.718522) scale(0.1 -0.1)">
     <defs>
      <path id="CMR17-54" d="M 2508 2156 
C 3116 2278 3629 2689 3629 3203 
C 3629 3806 2950 4352 2054 4352 
L 332 4352 
L 332 4185 
C 774 4185 844 4185 844 3896 
L 844 428 
C 844 140 774 140 332 140 
L 332 -26 
C 518 -13 851 -13 1049 -13 
C 1248 -13 1580 -13 1766 -26 
L 1766 140 
C 1324 140 1254 140 1254 428 
L 1254 2112 
L 2003 2112 
C 2368 2112 2572 1964 2662 1881 
C 2918 1632 2918 1459 2918 1024 
C 2918 595 2918 377 3110 160 
C 3353 -103 3680 -128 3821 -128 
C 4294 -128 4365 403 4365 512 
C 4365 550 4365 595 4307 595 
C 4256 595 4249 556 4249 531 
C 4217 115 4032 -26 3833 -26 
C 3481 -26 3443 377 3405 768 
C 3385 902 3373 998 3360 1139 
C 3321 1459 3270 1926 2508 2156 
z
M 1984 2214 
L 1254 2214 
L 1254 3935 
C 1254 4153 1267 4185 1523 4185 
L 1990 4185 
C 2521 4185 3142 3999 3142 3203 
C 3142 2374 2464 2214 1984 2214 
z
" transform="scale(0.015625)"/>
      <path id="CMR17-57" d="M 3456 1442 
C 3456 583 2899 38 2291 38 
C 1964 38 1670 211 1491 480 
C 1286 788 1260 1185 1260 1410 
L 1260 3897 
C 1260 4185 1331 4185 1772 4185 
L 1772 4352 
C 1587 4339 1248 4339 1049 4339 
C 851 4339 512 4339 326 4352 
L 326 4185 
C 768 4185 838 4185 838 3897 
L 838 1442 
C 838 519 1536 -128 2278 -128 
C 3110 -128 3590 724 3590 1352 
L 3590 3788 
C 3590 4147 3917 4185 4102 4185 
L 4102 4352 
C 3955 4339 3686 4339 3526 4339 
C 3366 4339 3091 4339 2944 4352 
L 2944 4185 
C 3456 4185 3456 3884 3456 3724 
L 3456 1442 
z
" transform="scale(0.015625)"/>
     </defs>
     <use xlink:href="#CMR17-54" transform="scale(0.996264)"/>
     <use xlink:href="#CMR17-57" transform="translate(65.188648 0) scale(0.996264)"/>
     <use xlink:href="#CMR17-54" transform="translate(134.261078 0) scale(0.996264)"/>
     <use xlink:href="#CMR17-57" transform="translate(199.449726 0) scale(0.996264)"/>
     <use xlink:href="#CMR17-57" transform="translate(268.522156 0) scale(0.996264)"/>
     <use xlink:href="#CMR17-54" transform="translate(337.594585 0) scale(0.996264)"/>
     <use xlink:href="#CMR17-54" transform="translate(405.385687 0) scale(0.996264)"/>
     <use xlink:href="#CMR17-57" transform="translate(470.574335 0) scale(0.996264)"/>
     <use xlink:href="#CMR17-6f" transform="translate(569.722732 0) scale(0.996264)"/>
     <use xlink:href="#CMR17-63" transform="translate(646.642322 0) scale(0.996264)"/>
     <use xlink:href="#CMR17-72" transform="translate(692.332799 0) scale(0.996264)"/>
     <use xlink:href="#CMR17-75" transform="translate(743.228168 0) scale(0.996264)"/>
     <use xlink:href="#CMR17-76" transform="translate(809.105472 0) scale(0.996264)"/>
     <use xlink:href="#CMR17-71" transform="translate(844.38624 0) scale(0.996264)"/>
     <use xlink:href="#CMR17-54" transform="translate(920.152684 0) scale(0.996264)"/>
     <use xlink:href="#CMR17-57" transform="translate(985.341332 0) scale(0.996264)"/>
     <use xlink:href="#CMR17-54" transform="translate(1054.413762 0) scale(0.996264)"/>
     <use xlink:href="#CMR17-57" transform="translate(1119.60241 0) scale(0.996264)"/>
     <use xlink:href="#CMR17-57" transform="translate(1188.674839 0) scale(0.996264)"/>
     <use xlink:href="#CMR17-57" transform="translate(1257.747269 0) scale(0.996264)"/>
     <use xlink:href="#CMR17-57" transform="translate(1326.819699 0) scale(0.996264)"/>
     <use xlink:href="#CMR17-54" transform="translate(1395.892129 0) scale(0.996264)"/>
    </g>
   </g>
   <g id="text_11">
    <!-- reflection axis: y=x+1 -->
    <g style="fill: #9a3412" transform="translate(217.592984 230.088785) scale(0.1 -0.1)">
     <defs>
      <path id="CMR17-2c" d="M 2412 1472 
L 4109 1472 
C 4198 1472 4307 1472 4307 1580 
C 4307 1696 4205 1696 4109 1696 
L 2412 1696 
L 2412 3385 
C 2412 3475 2412 3584 2304 3584 
C 2188 3584 2188 3481 2188 3385 
L 2188 1696 
L 492 1696 
C 403 1696 294 1696 294 1587 
C 294 1472 396 1472 492 1472 
L 2188 1472 
L 2188 -194 
C 2188 -282 2188 -391 2297 -391 
C 2412 -391 2412 -289 2412 -194 
L 2412 1472 
z
" transform="scale(0.015625)"/>
      <path id="CMR17-33" d="M 1702 4083 
C 1702 4217 1696 4224 1606 4224 
C 1356 3927 979 3833 620 3820 
C 601 3820 569 3820 563 3808 
C 556 3795 556 3782 556 3648 
C 755 3648 1088 3686 1344 3839 
L 1344 467 
C 1344 243 1331 166 780 166 
L 588 166 
L 588 0 
C 896 6 1216 12 1523 12 
C 1830 12 2150 6 2457 0 
L 2457 166 
L 2265 166 
C 1715 166 1702 236 1702 467 
L 1702 4083 
z
" transform="scale(0.015625)"/>
     </defs>
     <use xlink:href="#CMR17-74" transform="scale(0.996264)"/>
     <use xlink:href="#CMR17-67" transform="translate(35.280768 0) scale(0.996264)"/>
     <use xlink:href="#CMR17-e" transform="translate(75.766428 0) scale(0.996264)"/>
     <use xlink:href="#CMR17-67" transform="translate(125.508652 0) scale(0.996264)"/>
     <use xlink:href="#CMR17-65" transform="translate(165.994312 0) scale(0.996264)"/>
     <use xlink:href="#CMR17-76" transform="translate(206.479973 0) scale(0.996264)"/>
     <use xlink:href="#CMR17-6b" transform="translate(241.76074 0) scale(0.996264)"/>
     <use xlink:href="#CMR17-71" transform="translate(266.631799 0) scale(0.996264)"/>
     <use xlink:href="#CMR17-70" transform="translate(312.322276 0) scale(0.996264)"/>
     <use xlink:href="#CMR17-63" transform="translate(393.293612 0) scale(0.996264)"/>
     <use xlink:href="#CMR17-7a" transform="translate(438.984089 0) scale(0.996264)"/>
     <use xlink:href="#CMR17-6b" transform="translate(487.277005 0) scale(0.996264)"/>
     <use xlink:href="#CMR17-75" transform="translate(512.148064 0) scale(0.996264)"/>
     <use xlink:href="#CMR17-3c" transform="translate(547.949401 0) scale(0.996264)"/>
     <use xlink:href="#CMR17-7b" transform="translate(613.30612 0) scale(0.996264)"/>
     <use xlink:href="#CMR17-3f" transform="translate(661.599036 0) scale(0.996264)"/>
     <use xlink:href="#CMR17-7a" transform="translate(733.313824 0) scale(0.996264)"/>
     <use xlink:href="#CMR17-2c" transform="translate(781.60674 0) scale(0.996264)"/>
     <use xlink:href="#CMR17-33" transform="translate(853.321529 0) scale(0.996264)"/>
    </g>
   </g>
   <g id="text_12">
    <!-- Its reflected path -->
    <g transform="translate(238.800635 11.30242) scale(0.12 -0.12)">
     <defs>
      <path id="CMR17-4b" d="M 1260 3898 
C 1260 4185 1337 4185 1798 4185 
L 1798 4352 
C 1593 4339 1267 4339 1049 4339 
C 832 4339 505 4339 300 4352 
L 300 4185 
C 761 4185 838 4185 838 3898 
L 838 453 
C 838 166 761 166 300 166 
L 300 0 
C 505 12 832 12 1049 12 
C 1267 12 1593 12 1798 0 
L 1798 166 
C 1337 166 1260 166 1260 453 
L 1260 3898 
z
" transform="scale(0.015625)"/>
     </defs>
     <use xlink:href="#CMR17-4b" transform="scale(0.996264)"/>
     <use xlink:href="#CMR17-76" transform="translate(32.638409 0) scale(0.996264)"/>
     <use xlink:href="#CMR17-75" transform="translate(67.919177 0) scale(0.996264)"/>
     <use xlink:href="#CMR17-74" transform="translate(133.796481 0) scale(0.996264)"/>
     <use xlink:href="#CMR17-67" transform="translate(169.077249 0) scale(0.996264)"/>
     <use xlink:href="#CMR17-e" transform="translate(209.562909 0) scale(0.996264)"/>
     <use xlink:href="#CMR17-67" transform="translate(259.305133 0) scale(0.996264)"/>
     <use xlink:href="#CMR17-65" transform="translate(299.790793 0) scale(0.996264)"/>
     <use xlink:href="#CMR17-76" transform="translate(340.276454 0) scale(0.996264)"/>
     <use xlink:href="#CMR17-67" transform="translate(375.557221 0) scale(0.996264)"/>
     <use xlink:href="#CMR17-66" transform="translate(416.042882 0) scale(0.996264)"/>
     <use xlink:href="#CMR17-72" transform="translate(497.014218 0) scale(0.996264)"/>
     <use xlink:href="#CMR17-63" transform="translate(547.909588 0) scale(0.996264)"/>
     <use xlink:href="#CMR17-76" transform="translate(593.600065 0) scale(0.996264)"/>
     <use xlink:href="#CMR17-6a" transform="translate(628.880833 0) scale(0.996264)"/>
    </g>
   </g>
   <g id="PathCollection_2">
    <g clip-path="url(#pcc140e30cd)">
     <use xlink:href="#md099fcd349" x="282.56592" y="93.64562" style="fill: #ffffff; stroke: #dc2626; stroke-width: 3"/>
    </g>
   </g>
  </g>
  <g id="patch_2">
   <path d="M 185.37704 90.487066 
Q 195.79988 100.18796 204.585911 108.365419 
" style="fill: none; stroke: #64748b; stroke-width: 2; stroke-linecap: round"/>
   <path d="M 203.020498 104.176209 
L 204.585911 108.365419 
L 200.295295 107.104223 
" style="fill: none; stroke: #64748b; stroke-width: 2; stroke-linecap: round"/>
  </g>
 </g>
 <defs>
  <clipPath id="pccbc2cba73">
   <rect x="3.00024" y="18.700454" width="182.3768" height="182.3768"/>
  </clipPath>
  <clipPath id="pcc140e30cd">
   <rect x="206.22272" y="17.30242" width="152.6864" height="185.172868"/>
  </clipPath>
 </defs>
</svg>
